<svg width="134" height="46" viewBox="0 0 134 46" fill="none" xmlns="http://www.w3.org/2000/svg">
<path d="M15.8047 45.75V15.9609L16.9062 10.6406H23.75V45.75H15.8047ZM0.242188 23.5547V23.0625C0.242188 21.1406 0.453125 19.3906 0.875 17.8125C1.29688 16.2188 1.92188 14.8594 2.75 13.7344C3.57812 12.5938 4.60156 11.7188 5.82031 11.1094C7.05469 10.4844 8.47656 10.1719 10.0859 10.1719C11.6016 10.1719 12.8984 10.5 13.9766 11.1562C15.0703 11.8125 15.9844 12.7344 16.7188 13.9219C17.4531 15.0938 18.0469 16.4688 18.5 18.0469C18.9688 19.625 19.3359 21.3281 19.6016 23.1562V23.7422C19.3359 25.4609 18.9688 27.0859 18.5 28.6172C18.0469 30.1484 17.4531 31.5078 16.7188 32.6953C15.9844 33.8672 15.0703 34.7891 13.9766 35.4609C12.8828 36.1328 11.5703 36.4688 10.0391 36.4688C8.44531 36.4688 7.03906 36.1484 5.82031 35.5078C4.60156 34.8516 3.57812 33.9453 2.75 32.7891C1.92188 31.6172 1.29688 30.25 0.875 28.6875C0.453125 27.1094 0.242188 25.3984 0.242188 23.5547ZM8.14062 23.0625V23.5547C8.14062 24.5078 8.20312 25.3984 8.32812 26.2266C8.45312 27.0391 8.66406 27.7578 8.96094 28.3828C9.27344 29.0078 9.67969 29.5 10.1797 29.8594C10.6797 30.2031 11.3047 30.375 12.0547 30.375C13.1953 30.375 14.0938 30.125 14.75 29.625C15.4062 29.125 15.8672 28.4297 16.1328 27.5391C16.3984 26.6328 16.5078 25.5781 16.4609 24.375V22.5234C16.4766 21.4922 16.4141 20.5859 16.2734 19.8047C16.1328 19.0234 15.8906 18.375 15.5469 17.8594C15.2188 17.3281 14.7734 16.9297 14.2109 16.6641C13.6484 16.3984 12.9453 16.2656 12.1016 16.2656C11.3672 16.2656 10.7422 16.4375 10.2266 16.7812C9.72656 17.1094 9.32031 17.5781 9.00781 18.1875C8.71094 18.7969 8.49219 19.5156 8.35156 20.3438C8.21094 21.1719 8.14062 22.0781 8.14062 23.0625ZM43.0391 29.8359V10.6406H50.9609V36H43.5547L43.0391 29.8359ZM43.7891 24.6797L45.8516 24.6328C45.8516 26.3359 45.6484 27.9141 45.2422 29.3672C44.8359 30.8047 44.2344 32.0547 43.4375 33.1172C42.6562 34.1797 41.6875 35.0078 40.5312 35.6016C39.3906 36.1797 38.0703 36.4688 36.5703 36.4688C35.3203 36.4688 34.1719 36.2969 33.125 35.9531C32.0938 35.5938 31.2031 35.0391 30.4531 34.2891C29.7031 33.5234 29.1172 32.5469 28.6953 31.3594C28.2891 30.1562 28.0859 28.7188 28.0859 27.0469V10.6406H35.9844V27.0938C35.9844 27.6562 36.0547 28.1406 36.1953 28.5469C36.3359 28.9531 36.5391 29.2969 36.8047 29.5781C37.0703 29.8438 37.3984 30.0469 37.7891 30.1875C38.1953 30.3125 38.6562 30.375 39.1719 30.375C40.3594 30.375 41.2891 30.125 41.9609 29.625C42.6328 29.125 43.1016 28.4453 43.3672 27.5859C43.6484 26.7266 43.7891 25.7578 43.7891 24.6797ZM63.6641 10.6406V36H55.7422V10.6406H63.6641ZM55.2734 4.10156C55.2734 2.97656 55.6797 2.05469 56.4922 1.33594C57.3047 0.617187 58.3594 0.257812 59.6562 0.257812C60.9531 0.257812 62.0078 0.617187 62.8203 1.33594C63.6328 2.05469 64.0391 2.97656 64.0391 4.10156C64.0391 5.22656 63.6328 6.14844 62.8203 6.86719C62.0078 7.58594 60.9531 7.94531 59.6562 7.94531C58.3594 7.94531 57.3047 7.58594 56.4922 6.86719C55.6797 6.14844 55.2734 5.22656 55.2734 4.10156ZM89.3984 29.9062V36H69.7578V29.9062H89.3984ZM89.1641 14.9062L73.2969 36H67.8828V31.5938L83.7266 10.6406H89.1641V14.9062ZM86.5625 10.6406V16.7344H68.3516V10.6406H86.5625ZM114.148 29.9062V36H94.5078V29.9062H114.148ZM113.914 14.9062L98.0469 36H92.6328V31.5938L108.477 10.6406H113.914V14.9062ZM111.312 10.6406V16.7344H93.1016V10.6406H111.312ZM126.008 16.9219V36H118.109V10.6406H125.492L126.008 16.9219ZM133.508 10.4531L133.367 17.7891C133.055 17.7578 132.633 17.7188 132.102 17.6719C131.57 17.625 131.125 17.6016 130.766 17.6016C129.844 17.6016 129.047 17.7109 128.375 17.9297C127.719 18.1328 127.172 18.4453 126.734 18.8672C126.312 19.2734 126 19.7891 125.797 20.4141C125.609 21.0391 125.523 21.7656 125.539 22.5938L124.109 21.6562C124.109 19.9531 124.273 18.4062 124.602 17.0156C124.945 15.6094 125.43 14.3984 126.055 13.3828C126.68 12.3516 127.438 11.5625 128.328 11.0156C129.219 10.4531 130.219 10.1719 131.328 10.1719C131.719 10.1719 132.102 10.1953 132.477 10.2422C132.867 10.2891 133.211 10.3594 133.508 10.4531Z" fill="url(#paint0_radial_8_91)"/>
<defs>
<radialGradient id="paint0_radial_8_91" cx="0" cy="0" r="1" gradientUnits="userSpaceOnUse" gradientTransform="translate(66.5 20) rotate(22.5294) scale(73.077 176.168)">
<stop stop-color="white"/>
<stop offset="1" stop-color="white" stop-opacity="0.3"/>
</radialGradient>
</defs>
</svg>
